<?xml version="1.0" encoding="UTF-8"?>
<!DOCTYPE svg PUBLIC "-//W3C//DTD SVG 1.1//EN" "http://www.w3.org/Graphics/SVG/1.1/DTD/svg11.dtd">
<!-- Creator: CorelDRAW X7 -->
<svg xmlns="http://www.w3.org/2000/svg" xml:space="preserve" width="100%" height="100%" version="1.1" style="shape-rendering:geometricPrecision; text-rendering:geometricPrecision; image-rendering:optimizeQuality; fill-rule:evenodd; clip-rule:evenodd"
viewBox="0 0 245 90"
 xmlns:xlink="http://www.w3.org/1999/xlink">
 <defs>
  <style type="text/css">
   <![CDATA[
    .fil0 {fill:#373435}
   ]]>
  </style>
 </defs>
 <g id="Layer_x0020_1">
  <metadata id="CorelCorpID_0Corel-Layer"/>
  <g id="_303704912">
   <path class="fil0" d="M73 65c3,0 3,0 6,-1 -1,3 -2,7 -3,10 -1,1 -1,3 -2,5 -1,3 -1,4 -2,4l-49 0 -6 -18 4 0c0,2 0,6 2,6 1,0 1,0 1,0l1 0c0,0 0,0 0,0 0,2 0,5 3,3 1,-1 1,-7 1,-9l37 0c0,2 0,4 0,6 -1,3 0,3 1,4 3,-1 2,-1 2,-4 4,4 4,-2 4,-6zm-57 -4c-2,-5 -4,-11 -5,-16 -4,-10 -4,-8 3,-13 8,-6 16,-11 24,-17 11,-8 9,-8 13,-5 5,3 8,6 12,9 5,3 9,6 13,9l12 9 -9 25c-2,-3 0,-1 -5,-2 0,-6 2,-7 -3,-6 0,-2 0,-6 -3,-5 -1,1 -1,5 -1,7 0,0 0,2 0,3 -1,2 -1,1 -3,1 -2,0 -4,0 -7,0 1,-2 7,-6 9,-10 0,-2 -2,-4 -3,-6 0,-3 -1,-5 -1,-8 -2,1 -5,3 -8,4l-8 4c0,2 1,3 3,2 2,0 3,0 4,1 7,8 3,14 -4,8 -2,-1 -3,-4 -5,-6 -3,-3 -8,-8 -7,-15 0,-4 2,-6 4,-7 2,-2 6,-4 9,-2 -1,1 -1,1 -3,2 -2,1 -4,4 -3,7 2,4 9,2 12,0 3,-2 6,-5 2,-9 -2,-3 -6,-5 -12,-3 -7,2 -15,7 -17,14 0,4 1,11 2,14 1,2 2,4 3,5 1,1 3,4 3,5l-9 0c0,-5 1,-14 -4,-10l0 3c-1,-1 -2,-2 -3,0 0,0 0,1 0,1 0,2 1,4 0,6 -6,0 -3,1 -5,1zm-16 -27l18 56 60 0 10 -31c0,-1 0,0 0,-1 0,10 -3,27 13,31 6,2 14,1 20,-1 7,-1 10,-3 16,-6 -1,-10 1,-11 4,-18 -5,-1 -26,-2 -29,-1 0,1 0,3 0,4 6,2 7,-1 8,7 1,5 2,9 -3,10 -5,1 -7,-2 -9,-6 -1,-4 -2,-8 -3,-12 -1,-10 -2,-18 5,-24 5,-5 14,-5 20,-2 2,0 2,1 2,2 -7,1 -10,0 -14,5 -6,7 14,12 23,9 8,-3 7,-22 -24,-22 -10,0 -18,3 -23,11l-2 1c1,-4 3,-8 4,-12 -7,-5 -47,-34 -48,-34 -1,0 -31,22 -36,25l-12 9z"/>
   <path class="fil0" d="M216 79c0,0 0,0 0,0l-1 -1c-2,-2 -6,-9 -9,-10 -1,-1 -5,-1 -6,0 -2,1 -1,4 -5,10 -1,2 -4,7 -4,10 1,1 2,2 5,1 3,0 3,-4 6,-9l2 -4c0,-1 0,-1 0,-1 1,-1 0,0 1,-1 3,5 5,12 15,8 6,-2 13,-8 16,-9 0,3 -8,19 3,16 3,-1 3,-2 2,-4 -1,-4 3,-12 3,-16 -8,-6 -19,8 -28,10z"/>
   <path class="fil0" d="M145 69c0,2 5,2 9,4 3,2 6,4 9,6 0,3 -2,6 -2,9 2,1 3,2 5,1 7,-1 1,-8 8,-12 6,-3 14,-6 18,-9 -3,-4 -9,0 -12,2 -2,1 -4,1 -6,3 -10,4 -4,3 -17,-3 -2,-1 -10,-5 -12,-1z"/>
   <path class="fil0" d="M205 52c-1,-1 -1,-1 -2,-2l-4 -6c-3,-5 -2,-9 -5,-8 -2,0 -2,6 -3,10 -1,4 -2,8 -1,13 4,1 3,-5 4,-11l1 -4c1,0 1,0 2,3 1,1 7,11 8,11 2,1 3,0 3,-2l1 -8c1,-3 2,-6 2,-8 2,-7 -2,-5 -3,-5 -1,2 -2,14 -3,17z"/>
   <path class="fil0" d="M243 57l0 -2c-3,-1 -10,0 -13,0 0,-1 0,-2 0,-3 0,0 0,-1 0,-1l0 -1c0,0 1,0 1,0 0,-2 10,-1 11,-3 2,-4 -7,-2 -11,-2l1 -4c0,-3 2,-2 7,-2 3,-1 6,0 6,-3 -3,-2 -11,0 -15,0 -4,0 -2,2 -2,5 0,2 -1,5 -1,7 -1,3 -1,5 -1,7 -1,6 4,3 10,3 3,0 5,0 7,-1z"/>
   <path class="fil0" d="M169 37c0,1 1,2 1,4 -1,4 -3,16 -3,17 3,2 6,1 9,0 4,0 7,0 9,-2 -1,-5 -9,0 -13,-1 -1,-1 0,-3 0,-4 1,-2 1,-2 3,-2 3,-1 7,-1 9,-2 0,-5 -4,-2 -11,-2l1 -5c0,-2 9,-1 12,-2 2,-4 -3,-3 -7,-3 -2,1 -8,1 -10,2z"/>
   <path class="fil0" d="M147 37c0,1 1,2 1,4 -1,6 -3,14 -3,17 3,2 7,0 10,0 3,0 8,1 7,-3 -3,-2 -9,1 -12,0 -1,-8 3,-6 10,-7 3,-1 3,-4 -1,-3 -3,0 -5,0 -8,0 0,0 1,-5 1,-6 2,-1 10,0 11,-1 1,-1 2,-2 1,-3 -2,0 -16,1 -17,2z"/>
   <path class="fil0" d="M220 56c0,-7 0,-9 1,-16 2,-7 -3,-7 -4,-1 0,4 -1,8 -1,12 -1,11 4,7 4,5z"/>
  </g>
 </g>
</svg>
